<svg width="210" height="34" viewBox="0 0 210 34" fill="none" xmlns="http://www.w3.org/2000/svg">
<path d="M10.56 25.884C8.61867 25.884 6.944 25.4787 5.536 24.668C4.128 23.8574 3.04 22.7054 2.272 21.212C1.504 19.7187 1.12 17.948 1.12 15.9C1.12 13.6174 1.57867 11.644 2.496 9.98002C3.43467 8.29469 4.74667 6.99336 6.432 6.07602C8.13867 5.13736 10.1333 4.66802 12.416 4.66802C13.0987 4.66802 13.8027 4.71069 14.528 4.79602C15.2747 4.86002 15.9573 4.94535 16.576 5.05202C17.1947 5.15869 17.696 5.25469 18.08 5.34002C18.4853 5.40402 18.688 5.43602 18.688 5.43602L18.848 5.72402C18.848 5.72402 18.7947 5.98002 18.688 6.49202C18.5813 6.98269 18.4533 7.65469 18.304 8.50802C18.176 9.34002 18.08 10.268 18.016 11.292L15.808 11.452C15.808 11.452 15.8187 11.2814 15.84 10.94C15.8827 10.5774 15.904 10.172 15.904 9.72402C15.904 8.76402 15.5733 8.08135 14.912 7.67602C14.2507 7.27069 13.1733 7.06802 11.68 7.06802C10.208 7.06802 8.96 7.36669 7.936 7.96402C6.912 8.54002 6.13333 9.41469 5.6 10.588C5.088 11.74 4.832 13.1587 4.832 14.844C4.832 16.6787 5.09867 18.2574 5.632 19.58C6.16533 20.9027 6.912 21.916 7.872 22.62C8.832 23.324 9.97333 23.676 11.296 23.676C12.064 23.676 12.736 23.5907 13.312 23.42C13.888 23.2494 14.336 23.0787 14.656 22.908C14.976 22.716 15.136 22.62 15.136 22.62V19.132C15.136 18.4494 15.0293 18.0014 14.816 17.788C14.624 17.5747 14.1973 17.468 13.536 17.468C13.3013 17.468 13.024 17.468 12.704 17.468C12.4053 17.468 12.1387 17.468 11.904 17.468C11.6693 17.468 11.552 17.468 11.552 17.468L11.456 17.276L11.744 15.388C11.872 15.388 12.1493 15.3987 12.576 15.42C13.024 15.4414 13.5467 15.4627 14.144 15.484C14.7627 15.484 15.3813 15.484 16 15.484C16.4907 15.484 16.96 15.4734 17.408 15.452C17.856 15.4307 18.2187 15.4094 18.496 15.388C18.7947 15.3454 18.944 15.324 18.944 15.324L19.136 16.284C18.816 16.4974 18.5707 16.7854 18.4 17.148C18.2507 17.5107 18.144 18.0227 18.08 18.684C18.016 19.324 17.984 20.2094 17.984 21.34C17.984 21.916 18.0053 22.46 18.048 22.972C18.0907 23.4627 18.144 23.8574 18.208 24.156L17.984 24.476C17.984 24.476 17.664 24.5934 17.024 24.828C16.384 25.0627 15.4987 25.2974 14.368 25.532C13.2587 25.7667 11.9893 25.884 10.56 25.884ZM32.9078 25.884C32.0118 25.884 31.3078 25.6707 30.7958 25.244C30.2838 24.8174 29.9851 24.188 29.8998 23.356L29.7078 23.292C29.2384 23.7614 28.7691 24.188 28.2998 24.572C27.8518 24.9347 27.4464 25.2227 27.0838 25.436C26.7211 25.6494 26.4224 25.756 26.1878 25.756C25.3771 25.756 24.6518 25.5747 24.0118 25.212C23.3718 24.828 22.8704 24.316 22.5078 23.676C22.1451 23.036 21.9638 22.3107 21.9638 21.5C21.9638 20.86 22.1238 20.3054 22.4438 19.836C22.7638 19.3454 23.1904 19.0254 23.7238 18.876L29.8358 17.308L29.8678 16.188C29.8678 15.2067 29.6224 14.4387 29.1318 13.884C28.6624 13.308 27.9798 13.02 27.0838 13.02C26.4864 13.02 25.8464 13.1694 25.1638 13.468C24.5024 13.7454 23.8731 14.1187 23.2758 14.588L23.0838 14.46L22.6038 12.86C23.2011 12.5187 23.8624 12.1667 24.5878 11.804C25.3131 11.4414 25.9958 11.1427 26.6358 10.908C27.2971 10.652 27.7984 10.524 28.1398 10.524C29.2064 10.524 30.0918 10.7054 30.7958 11.068C31.5211 11.4094 32.0651 11.9 32.4278 12.54C32.7904 13.1587 32.9718 13.8947 32.9718 14.748C32.9718 15.0254 32.9398 15.4627 32.8758 16.06C32.8118 16.6574 32.7371 17.3187 32.6518 18.044C32.5664 18.7694 32.4918 19.4734 32.4278 20.156C32.3851 20.8174 32.3638 21.3507 32.3638 21.756C32.3638 22.204 32.4704 22.556 32.6838 22.812C32.9184 23.0467 33.2278 23.164 33.6118 23.164C33.9318 23.164 34.2518 23.0894 34.5718 22.94C34.9131 22.7694 35.1691 22.6094 35.3398 22.46L35.8198 23.068C35.6278 23.388 35.3718 23.7507 35.0518 24.156C34.7531 24.54 34.4118 24.892 34.0278 25.212C33.6651 25.532 33.2918 25.756 32.9078 25.884ZM27.0198 23.196C27.3824 23.196 27.8091 23.0787 28.2998 22.844C28.7904 22.588 29.2384 22.2787 29.6438 21.916L29.7718 18.78L25.8358 19.9C25.2811 20.0707 25.0038 20.476 25.0038 21.116C25.0038 21.692 25.1851 22.1827 25.5477 22.588C25.9318 22.9934 26.4224 23.196 27.0198 23.196ZM37.664 24.06C38.304 23.996 38.7307 23.804 38.944 23.484C39.1573 23.1427 39.264 22.5134 39.264 21.596V14.876C39.264 14.1507 39.168 13.6494 38.976 13.372C38.784 13.0734 38.4533 12.924 37.984 12.924C37.8347 12.924 37.6853 12.9454 37.536 12.988C37.408 13.0094 37.344 13.02 37.344 13.02L37.184 12.796L37.312 11.516C38.1013 11.3667 38.8693 11.2174 39.616 11.068C40.384 10.9187 41.024 10.7907 41.536 10.684C42.048 10.556 42.304 10.492 42.304 10.492L42.56 10.716C42.56 10.716 42.528 10.8867 42.464 11.228C42.4213 11.548 42.3787 11.9534 42.336 12.444C42.2933 12.9134 42.272 13.3934 42.272 13.884L42.4 13.98C43.0827 12.9987 43.8293 12.2094 44.64 11.612C45.472 10.9934 46.2293 10.684 46.912 10.684C47.2533 10.684 47.5093 10.7054 47.68 10.748C47.872 10.7907 47.968 10.812 47.968 10.812L48.064 11.004C48.064 11.004 48.0427 11.164 48 11.484C47.9573 11.7827 47.8933 12.188 47.808 12.7C47.744 13.212 47.68 13.7774 47.616 14.396C47.5733 14.9934 47.5307 15.5694 47.488 16.124L45.888 16.22C45.888 15.2814 45.8347 14.6627 45.728 14.364C45.6213 14.0654 45.376 13.916 44.992 13.916C44.5867 13.916 44.1493 14.076 43.68 14.396C43.232 14.716 42.8053 15.164 42.4 15.74C42.4 15.74 42.3893 15.932 42.368 16.316C42.3467 16.7 42.3253 17.1907 42.304 17.788C42.2827 18.364 42.2507 18.9614 42.208 19.58C42.1867 20.1987 42.1653 20.7427 42.144 21.212C42.1227 21.6814 42.112 21.98 42.112 22.108C42.112 22.748 42.208 23.196 42.4 23.452C42.6133 23.6867 42.9867 23.804 43.52 23.804C43.7973 23.804 44.1173 23.7934 44.48 23.772C44.8427 23.7294 45.024 23.708 45.024 23.708L45.088 23.868L44.768 25.596C44.768 25.596 44.64 25.5854 44.384 25.564C44.1493 25.564 43.84 25.5534 43.456 25.532C43.072 25.532 42.6667 25.5214 42.24 25.5C41.8347 25.5 41.4613 25.5 41.12 25.5C40.48 25.5 39.8827 25.5107 39.328 25.532C38.7733 25.5534 38.3253 25.5747 37.984 25.596C37.6427 25.6174 37.472 25.628 37.472 25.628L37.664 24.06ZM62.615 25.884C60.8443 25.884 59.8417 25.1267 59.607 23.612L59.383 23.516C58.3163 24.2627 57.463 24.828 56.823 25.212C56.183 25.596 55.7457 25.788 55.511 25.788C54.295 25.788 53.2177 25.5 52.279 24.924C51.3617 24.348 50.647 23.548 50.135 22.524C49.623 21.5 49.367 20.2947 49.367 18.908C49.367 17.3294 49.719 15.9107 50.423 14.652C51.127 13.3934 52.087 12.4014 53.303 11.676C54.5403 10.9294 55.9057 10.556 57.399 10.556C57.6763 10.556 57.975 10.5667 58.295 10.588C58.615 10.6094 58.967 10.6307 59.351 10.652V5.88402C59.351 5.26536 59.255 4.81736 59.063 4.54002C58.871 4.26269 58.551 4.12402 58.103 4.12402C57.9323 4.12402 57.751 4.14536 57.559 4.18802C57.3883 4.23069 57.303 4.25202 57.303 4.25202L57.463 2.74802C58.103 2.66269 58.743 2.56669 59.383 2.46002C60.023 2.35336 60.6097 2.24669 61.143 2.14002C61.6977 2.01202 62.1243 1.91602 62.423 1.85202C62.743 1.78802 62.903 1.75602 62.903 1.75602L63.159 2.23602C63.0523 2.38535 62.9563 2.85469 62.871 3.64402C62.7857 4.41202 62.7003 5.43602 62.615 6.71602C62.5297 7.99602 62.455 9.43602 62.391 11.036C62.327 12.636 62.2737 14.3534 62.231 16.188C62.2097 18.0014 62.199 19.8574 62.199 21.756C62.199 22.204 62.3057 22.556 62.519 22.812C62.7323 23.0467 63.0203 23.164 63.383 23.164C63.703 23.164 63.991 23.1107 64.247 23.004C64.503 22.876 64.7057 22.7587 64.855 22.652C65.0257 22.524 65.111 22.46 65.111 22.46L65.591 23.068C65.591 23.068 65.5057 23.1854 65.335 23.42C65.1857 23.6547 64.9723 23.9427 64.695 24.284C64.439 24.6254 64.1297 24.9454 63.767 25.244C63.4043 25.5427 63.0203 25.756 62.615 25.884ZM56.311 23.292C56.6737 23.292 57.0257 23.228 57.367 23.1C57.7297 22.9507 58.0603 22.78 58.359 22.588C58.6577 22.396 58.8923 22.236 59.063 22.108C59.255 21.9587 59.351 21.884 59.351 21.884V13.436C59.351 13.436 59.095 13.3294 58.583 13.116C58.0923 12.8814 57.4203 12.764 56.567 12.764C55.3297 12.764 54.3483 13.212 53.623 14.108C52.919 14.9827 52.567 16.2094 52.567 17.788C52.567 18.8334 52.727 19.7827 53.047 20.636C53.3883 21.468 53.8363 22.1187 54.391 22.588C54.967 23.0574 55.607 23.292 56.311 23.292ZM73.5305 25.884C72.1225 25.884 70.8958 25.5854 69.8505 24.988C68.8052 24.3907 67.9945 23.5587 67.4185 22.492C66.8425 21.404 66.5545 20.1347 66.5545 18.684C66.5545 17.5534 66.7465 16.4974 67.1305 15.516C67.5145 14.5347 68.0372 13.6707 68.6985 12.924C69.3812 12.1774 70.1598 11.5907 71.0345 11.164C71.9092 10.7374 72.8478 10.524 73.8505 10.524C77.2212 10.524 78.9065 12.188 78.9065 15.516C78.9065 15.8147 78.8745 16.124 78.8105 16.444C78.7678 16.764 78.7252 17.02 78.6825 17.212L78.2985 17.564H69.7225C69.7225 19.2707 70.0638 20.6147 70.7465 21.596C71.4292 22.5774 72.3892 23.132 73.6265 23.26C74.8852 23.388 76.3572 23.068 78.0425 22.3L78.2345 22.396L78.6825 23.612C78.2345 23.932 77.7012 24.2734 77.0825 24.636C76.4852 24.9774 75.8665 25.2654 75.2265 25.5C74.6078 25.756 74.0425 25.884 73.5305 25.884ZM69.7865 16.124L74.9385 15.868C75.2158 15.8254 75.3972 15.7614 75.4825 15.676C75.5892 15.5694 75.6425 15.3667 75.6425 15.068C75.6425 14.236 75.4398 13.6067 75.0345 13.18C74.6292 12.7534 74.0425 12.54 73.2745 12.54C72.3572 12.54 71.5785 12.86 70.9385 13.5C70.3198 14.1187 69.9358 14.9934 69.7865 16.124ZM90.4618 24.22C91.0378 24.0707 91.4538 23.8467 91.7098 23.548C91.9658 23.228 92.0938 22.8014 92.0938 22.268L92.2218 16.284C92.2218 15.2814 92.0191 14.524 91.6138 14.012C91.2084 13.4787 90.6111 13.212 89.8218 13.212C89.3738 13.212 88.9151 13.308 88.4458 13.5C87.9978 13.6707 87.5924 13.8734 87.2298 14.108C86.8671 14.3214 86.5898 14.5027 86.3978 14.652C86.3764 15.228 86.3444 15.8894 86.3018 16.636C86.2804 17.3827 86.2484 18.1294 86.2058 18.876C86.1631 19.6227 86.1311 20.3054 86.1098 20.924C86.0884 21.5214 86.0778 21.9587 86.0778 22.236C86.0778 22.8334 86.1631 23.26 86.3338 23.516C86.5044 23.7507 86.7818 23.868 87.1658 23.868C87.3364 23.868 87.5391 23.8574 87.7738 23.836C88.0298 23.8147 88.1578 23.804 88.1578 23.804L88.2218 23.932L87.9338 25.596C87.9338 25.596 87.7524 25.5854 87.3898 25.564C87.0484 25.5427 86.6324 25.5214 86.1418 25.5C85.6724 25.5 85.2244 25.5 84.7977 25.5C84.3071 25.5 83.7951 25.5107 83.2618 25.532C82.7284 25.5747 82.2698 25.6067 81.8858 25.628C81.5231 25.6707 81.3418 25.692 81.3418 25.692L81.5658 24.06C82.1844 23.9747 82.6111 23.804 82.8458 23.548C83.1018 23.2707 83.2298 22.8334 83.2298 22.236V14.876C83.2298 14.1507 83.1124 13.6494 82.8778 13.372C82.6644 13.0947 82.2698 12.956 81.6938 12.956H81.3098L81.1818 12.796L81.3098 11.484C82.1631 11.3347 82.9738 11.196 83.7418 11.068C84.5311 10.9187 85.1711 10.7907 85.6618 10.684C86.1738 10.556 86.4298 10.492 86.4298 10.492L86.6538 10.78C86.6538 10.78 86.6004 11.004 86.4938 11.452C86.4084 11.8787 86.3444 12.3694 86.3018 12.924L86.3978 13.052C86.6111 12.8814 86.9204 12.6574 87.3258 12.38C87.7311 12.0814 88.1578 11.7934 88.6058 11.516C89.0538 11.2387 89.4804 11.004 89.8858 10.812C90.2911 10.62 90.6111 10.524 90.8458 10.524C92.2751 10.524 93.3951 10.8974 94.2058 11.644C95.0164 12.3694 95.4218 13.372 95.4218 14.652C95.4218 14.9507 95.3898 15.4307 95.3258 16.092C95.2831 16.732 95.2298 17.4467 95.1658 18.236C95.1018 19.0254 95.0378 19.7827 94.9738 20.508C94.9311 21.212 94.9098 21.7774 94.9098 22.204C94.9098 22.8014 94.9951 23.2387 95.1658 23.516C95.3364 23.772 95.6138 23.9 95.9978 23.9C96.1684 23.9 96.3818 23.8894 96.6378 23.868C96.9151 23.8467 97.0538 23.836 97.0538 23.836L97.1178 23.964L96.8298 25.596C96.8298 25.596 96.7231 25.5854 96.5098 25.564C96.3178 25.564 96.0511 25.5534 95.7098 25.532C95.3898 25.532 95.0484 25.5214 94.6858 25.5C94.3444 25.5 94.0244 25.5 93.7258 25.5C93.3844 25.5 93.0218 25.5107 92.6378 25.532C92.2538 25.5747 91.8804 25.6174 91.5178 25.66C91.1551 25.7027 90.8564 25.7347 90.6218 25.756C90.4084 25.7987 90.3018 25.82 90.3018 25.82L90.4618 24.22ZM104.603 25.884C103.536 25.884 102.608 25.788 101.819 25.596C101.029 25.404 100.411 25.212 99.9625 25.02C99.5145 24.828 99.2905 24.732 99.2905 24.732L99.0985 24.38C99.0985 24.38 99.1198 24.2307 99.1625 23.932C99.2052 23.612 99.2478 23.2067 99.2905 22.716C99.3545 22.204 99.4078 21.6174 99.4505 20.956C99.5145 20.2734 99.5465 19.5694 99.5465 18.844L101.499 18.684C101.499 20.0494 101.605 21.1054 101.819 21.852C102.032 22.5774 102.416 23.0787 102.971 23.356C103.547 23.6334 104.357 23.772 105.403 23.772C106.576 23.772 107.525 23.4947 108.251 22.94C108.997 22.3854 109.371 21.6387 109.371 20.7C109.371 20.0387 109.136 19.4734 108.667 19.004C108.197 18.5347 107.6 18.0974 106.875 17.692C106.149 17.2867 105.381 16.8814 104.571 16.476C103.717 16.0494 102.896 15.58 102.107 15.068C101.317 14.556 100.667 13.9587 100.155 13.276C99.6638 12.5934 99.4185 11.772 99.4185 10.812C99.4185 9.61736 99.7598 8.56135 100.443 7.64402C101.125 6.72669 102.053 6.00136 103.227 5.46802C104.421 4.93469 105.776 4.66802 107.291 4.66802C108.293 4.66802 109.179 4.73202 109.947 4.86002C110.715 4.98802 111.323 5.12669 111.771 5.27602C112.219 5.42536 112.443 5.50002 112.443 5.50002L112.571 5.78802C112.571 5.78802 112.517 6.03335 112.411 6.52402C112.325 7.01469 112.229 7.67602 112.123 8.50802C112.016 9.34002 111.92 10.2467 111.835 11.228L110.107 11.388L109.851 11.196C109.851 11.196 109.861 11.068 109.883 10.812C109.925 10.5347 109.947 10.1827 109.947 9.75602C109.947 8.71069 109.68 7.98536 109.147 7.58002C108.635 7.15336 107.728 6.94002 106.427 6.94002C105.381 6.94002 104.517 7.20669 103.835 7.74002C103.152 8.25202 102.811 8.90269 102.811 9.69202C102.811 10.2894 103.013 10.8227 103.419 11.292C103.824 11.74 104.347 12.156 104.987 12.54C105.648 12.924 106.352 13.2974 107.099 13.66C108.016 14.108 108.923 14.5987 109.819 15.132C110.715 15.6654 111.451 16.284 112.027 16.988C112.624 17.6707 112.923 18.524 112.923 19.548C112.923 20.8067 112.571 21.916 111.867 22.876C111.184 23.8147 110.213 24.5507 108.955 25.084C107.717 25.6174 106.267 25.884 104.603 25.884ZM119.503 26.012C119.503 26.012 119.439 25.788 119.311 25.34C119.183 24.8707 119.002 24.252 118.767 23.484C118.554 22.716 118.309 21.884 118.031 20.988C117.775 20.092 117.509 19.1854 117.231 18.268C116.975 17.3507 116.73 16.5187 116.495 15.772C116.282 15.0254 116.101 14.4387 115.951 14.012C115.61 12.9454 114.927 12.4014 113.903 12.38L113.839 12.252L114.063 10.876C114.063 10.876 114.234 10.876 114.575 10.876C114.917 10.876 115.301 10.8867 115.727 10.908C116.154 10.908 116.506 10.908 116.783 10.908C117.466 10.908 118.106 10.8867 118.703 10.844C119.322 10.8014 119.823 10.7694 120.207 10.748C120.591 10.7054 120.783 10.684 120.783 10.684L120.847 10.844L120.623 12.22C119.941 12.2414 119.482 12.316 119.247 12.444C119.034 12.5507 118.927 12.7534 118.927 13.052C118.927 13.2014 118.981 13.532 119.087 14.044C119.215 14.556 119.365 15.1747 119.535 15.9C119.727 16.604 119.919 17.3294 120.111 18.076C120.303 18.8227 120.485 19.5267 120.655 20.188C120.847 20.828 120.997 21.3614 121.103 21.788C121.21 22.1934 121.263 22.396 121.263 22.396H121.487C121.743 21.7347 121.999 21.0734 122.255 20.412C122.511 19.7507 122.746 19.1 122.959 18.46C123.194 17.82 123.407 17.2334 123.599 16.7C123.813 16.1667 123.994 15.6867 124.143 15.26C124.314 14.812 124.442 14.4494 124.527 14.172C124.357 13.5747 124.122 13.1374 123.823 12.86C123.546 12.5614 123.098 12.412 122.479 12.412L122.383 12.252L122.607 10.876C122.607 10.876 122.778 10.876 123.119 10.876C123.461 10.876 123.845 10.8867 124.271 10.908C124.698 10.908 125.05 10.908 125.327 10.908C126.01 10.908 126.65 10.8974 127.247 10.876C127.845 10.8334 128.335 10.8014 128.719 10.78C129.103 10.7374 129.295 10.716 129.295 10.716L129.359 10.876L129.135 12.252C128.431 12.2947 127.973 12.3694 127.759 12.476C127.546 12.5614 127.439 12.7534 127.439 13.052C127.439 13.18 127.493 13.5 127.599 14.012C127.727 14.524 127.877 15.1427 128.047 15.868C128.218 16.572 128.399 17.308 128.591 18.076C128.805 18.8227 128.997 19.5267 129.167 20.188C129.359 20.828 129.509 21.3614 129.615 21.788C129.722 22.1934 129.775 22.396 129.775 22.396H129.999C130.682 20.604 131.269 19.068 131.759 17.788C132.25 16.4867 132.623 15.4414 132.879 14.652C133.157 13.8627 133.295 13.3507 133.295 13.116C133.295 12.8387 133.21 12.6467 133.039 12.54C132.869 12.4334 132.559 12.38 132.111 12.38H131.087L130.959 12.188L131.151 10.844C131.151 10.844 131.322 10.8547 131.663 10.876C132.005 10.876 132.421 10.8867 132.911 10.908C133.423 10.908 133.925 10.908 134.415 10.908C134.799 10.908 135.205 10.908 135.631 10.908C136.058 10.8867 136.421 10.876 136.719 10.876C137.018 10.876 137.167 10.876 137.167 10.876L136.911 12.38C136.485 12.444 136.154 12.6147 135.919 12.892C135.685 13.148 135.397 13.7027 135.055 14.556L130.799 25.5L128.079 26.012C128.058 25.9054 127.962 25.564 127.791 24.988C127.642 24.3907 127.439 23.6547 127.183 22.78C126.927 21.884 126.661 20.956 126.383 19.996C126.106 19.0147 125.839 18.0867 125.583 17.212H125.327L122.287 25.5L119.503 26.012ZM144.562 25.884C143.154 25.884 141.927 25.5854 140.882 24.988C139.836 24.3907 139.026 23.5587 138.45 22.492C137.874 21.404 137.586 20.1347 137.586 18.684C137.586 17.5534 137.778 16.4974 138.162 15.516C138.546 14.5347 139.068 13.6707 139.73 12.924C140.412 12.1774 141.191 11.5907 142.066 11.164C142.94 10.7374 143.879 10.524 144.882 10.524C148.252 10.524 149.938 12.188 149.938 15.516C149.938 15.8147 149.906 16.124 149.842 16.444C149.799 16.764 149.756 17.02 149.714 17.212L149.33 17.564H140.754C140.754 19.2707 141.095 20.6147 141.778 21.596C142.46 22.5774 143.42 23.132 144.658 23.26C145.916 23.388 147.388 23.068 149.074 22.3L149.266 22.396L149.714 23.612C149.266 23.932 148.732 24.2734 148.114 24.636C147.516 24.9774 146.898 25.2654 146.258 25.5C145.639 25.756 145.074 25.884 144.562 25.884ZM140.818 16.124L145.97 15.868C146.247 15.8254 146.428 15.7614 146.514 15.676C146.62 15.5694 146.674 15.3667 146.674 15.068C146.674 14.236 146.471 13.6067 146.066 13.18C145.66 12.7534 145.074 12.54 144.306 12.54C143.388 12.54 142.61 12.86 141.97 13.5C141.351 14.1187 140.967 14.9934 140.818 16.124ZM159.093 25.884C157.685 25.884 156.458 25.5854 155.413 24.988C154.368 24.3907 153.557 23.5587 152.981 22.492C152.405 21.404 152.117 20.1347 152.117 18.684C152.117 17.5534 152.309 16.4974 152.693 15.516C153.077 14.5347 153.6 13.6707 154.261 12.924C154.944 12.1774 155.722 11.5907 156.597 11.164C157.472 10.7374 158.41 10.524 159.413 10.524C162.784 10.524 164.469 12.188 164.469 15.516C164.469 15.8147 164.437 16.124 164.373 16.444C164.33 16.764 164.288 17.02 164.245 17.212L163.861 17.564H155.285C155.285 19.2707 155.626 20.6147 156.309 21.596C156.992 22.5774 157.952 23.132 159.189 23.26C160.448 23.388 161.92 23.068 163.605 22.3L163.797 22.396L164.245 23.612C163.797 23.932 163.264 24.2734 162.645 24.636C162.048 24.9774 161.429 25.2654 160.789 25.5C160.17 25.756 159.605 25.884 159.093 25.884ZM155.349 16.124L160.501 15.868C160.778 15.8254 160.96 15.7614 161.045 15.676C161.152 15.5694 161.205 15.3667 161.205 15.068C161.205 14.236 161.002 13.6067 160.597 13.18C160.192 12.7534 159.605 12.54 158.837 12.54C157.92 12.54 157.141 12.86 156.501 13.5C155.882 14.1187 155.498 14.9934 155.349 16.124ZM166.872 33.084L167.064 31.516C167.726 31.4307 168.152 31.2494 168.344 30.972C168.536 30.6947 168.632 30.1507 168.632 29.34C168.654 28.956 168.664 28.444 168.664 27.804C168.686 27.1854 168.696 26.5454 168.696 25.884C168.718 25.2227 168.728 24.6574 168.728 24.188V14.876C168.728 14.1507 168.611 13.6494 168.376 13.372C168.163 13.0947 167.768 12.956 167.192 12.956H166.808L166.68 12.796L166.808 11.484C167.662 11.3347 168.472 11.196 169.24 11.068C170.03 10.9187 170.67 10.7907 171.16 10.684C171.651 10.556 171.896 10.492 171.896 10.492L172.152 10.78C172.152 10.78 172.099 10.9827 171.992 11.388C171.907 11.772 171.843 12.188 171.8 12.636L171.928 12.828C172.824 12.124 173.571 11.58 174.168 11.196C174.787 10.812 175.203 10.62 175.416 10.62C176.675 10.62 177.763 10.908 178.68 11.484C179.619 12.06 180.355 12.8707 180.888 13.916C181.422 14.94 181.688 16.1347 181.688 17.5C181.688 18.6947 181.475 19.804 181.048 20.828C180.643 21.8307 180.067 22.716 179.32 23.484C178.574 24.2307 177.699 24.8174 176.696 25.244C175.715 25.6494 174.638 25.852 173.464 25.852C173.251 25.852 172.995 25.8414 172.696 25.82C172.419 25.7987 172.163 25.7774 171.928 25.756C171.694 25.756 171.576 25.756 171.576 25.756C171.576 26.2467 171.576 26.7587 171.576 27.292C171.576 27.8254 171.576 28.3587 171.576 28.892C171.576 29.8094 171.662 30.4387 171.832 30.78C172.024 31.1214 172.398 31.292 172.952 31.292C173.144 31.292 173.347 31.2814 173.56 31.26C173.795 31.2387 173.987 31.228 174.136 31.228L174.2 31.356L173.912 32.892C173.699 32.892 173.454 32.892 173.176 32.892C172.899 32.892 172.6 32.8814 172.28 32.86C171.982 32.86 171.672 32.86 171.352 32.86C171.054 32.86 170.766 32.86 170.488 32.86C169.891 32.86 169.315 32.8707 168.76 32.892C168.206 32.9347 167.747 32.9774 167.384 33.02C167.043 33.0627 166.872 33.084 166.872 33.084ZM174.488 23.708C175.726 23.708 176.696 23.2707 177.4 22.396C178.126 21.5 178.488 20.2734 178.488 18.716C178.488 17.628 178.328 16.6787 178.008 15.868C177.688 15.0574 177.24 14.4174 176.664 13.948C176.088 13.4787 175.448 13.244 174.744 13.244C174.36 13.244 173.902 13.3614 173.368 13.596C172.835 13.8307 172.334 14.14 171.864 14.524C171.822 15.3774 171.779 16.316 171.736 17.34C171.715 18.3427 171.694 19.356 171.672 20.38C171.651 21.3827 171.64 22.3107 171.64 23.164C171.982 23.292 172.408 23.42 172.92 23.548C173.454 23.6547 173.976 23.708 174.488 23.708ZM190.656 25.884C189.248 25.884 188.021 25.5854 186.976 24.988C185.93 24.3907 185.12 23.5587 184.544 22.492C183.968 21.404 183.68 20.1347 183.68 18.684C183.68 17.5534 183.872 16.4974 184.256 15.516C184.64 14.5347 185.162 13.6707 185.824 12.924C186.506 12.1774 187.285 11.5907 188.16 11.164C189.034 10.7374 189.973 10.524 190.976 10.524C194.346 10.524 196.032 12.188 196.032 15.516C196.032 15.8147 196 16.124 195.936 16.444C195.893 16.764 195.85 17.02 195.808 17.212L195.424 17.564H186.848C186.848 19.2707 187.189 20.6147 187.872 21.596C188.554 22.5774 189.514 23.132 190.752 23.26C192.01 23.388 193.482 23.068 195.168 22.3L195.36 22.396L195.808 23.612C195.36 23.932 194.826 24.2734 194.208 24.636C193.61 24.9774 192.992 25.2654 192.352 25.5C191.733 25.756 191.168 25.884 190.656 25.884ZM186.911 16.124L192.064 15.868C192.341 15.8254 192.522 15.7614 192.608 15.676C192.714 15.5694 192.768 15.3667 192.768 15.068C192.768 14.236 192.565 13.6067 192.16 13.18C191.754 12.7534 191.168 12.54 190.4 12.54C189.482 12.54 188.704 12.86 188.064 13.5C187.445 14.1187 187.061 14.9934 186.911 16.124ZM198.883 24.06C199.523 23.996 199.949 23.804 200.163 23.484C200.376 23.1427 200.483 22.5134 200.483 21.596V14.876C200.483 14.1507 200.387 13.6494 200.195 13.372C200.003 13.0734 199.672 12.924 199.203 12.924C199.053 12.924 198.904 12.9454 198.755 12.988C198.627 13.0094 198.563 13.02 198.563 13.02L198.403 12.796L198.531 11.516C199.32 11.3667 200.088 11.2174 200.835 11.068C201.603 10.9187 202.243 10.7907 202.755 10.684C203.267 10.556 203.523 10.492 203.523 10.492L203.779 10.716C203.779 10.716 203.747 10.8867 203.683 11.228C203.64 11.548 203.597 11.9534 203.555 12.444C203.512 12.9134 203.491 13.3934 203.491 13.884L203.619 13.98C204.301 12.9987 205.048 12.2094 205.859 11.612C206.691 10.9934 207.448 10.684 208.131 10.684C208.472 10.684 208.728 10.7054 208.899 10.748C209.091 10.7907 209.187 10.812 209.187 10.812L209.283 11.004C209.283 11.004 209.261 11.164 209.219 11.484C209.176 11.7827 209.112 12.188 209.027 12.7C208.963 13.212 208.899 13.7774 208.835 14.396C208.792 14.9934 208.749 15.5694 208.707 16.124L207.107 16.22C207.107 15.2814 207.053 14.6627 206.947 14.364C206.84 14.0654 206.595 13.916 206.211 13.916C205.805 13.916 205.368 14.076 204.899 14.396C204.451 14.716 204.024 15.164 203.619 15.74C203.619 15.74 203.608 15.932 203.587 16.316C203.565 16.7 203.544 17.1907 203.523 17.788C203.501 18.364 203.469 18.9614 203.427 19.58C203.405 20.1987 203.384 20.7427 203.363 21.212C203.341 21.6814 203.331 21.98 203.331 22.108C203.331 22.748 203.427 23.196 203.619 23.452C203.832 23.6867 204.205 23.804 204.739 23.804C205.016 23.804 205.336 23.7934 205.699 23.772C206.061 23.7294 206.243 23.708 206.243 23.708L206.307 23.868L205.987 25.596C205.987 25.596 205.859 25.5854 205.603 25.564C205.368 25.564 205.059 25.5534 204.675 25.532C204.291 25.532 203.885 25.5214 203.459 25.5C203.053 25.5 202.68 25.5 202.339 25.5C201.699 25.5 201.101 25.5107 200.547 25.532C199.992 25.5534 199.544 25.5747 199.203 25.596C198.861 25.6174 198.691 25.628 198.691 25.628L198.883 24.06Z" fill="#D2D7CB"/>
</svg>
