<svg width="42" height="42" viewBox="0 0 42 42" fill="none" xmlns="http://www.w3.org/2000/svg">
<path d="M21 38.5C18.6083 38.5 16.3479 38.0404 14.2188 37.121C12.0896 36.2017 10.2305 34.9475 8.6415 33.3585C7.0525 31.7695 5.79833 29.9105 4.879 27.7813C3.95967 25.6521 3.5 23.3917 3.5 21C3.5 18.5792 3.95967 16.3118 4.879 14.1978C5.79833 12.0838 7.0525 10.2317 8.6415 8.64154C10.2305 7.05138 12.0896 5.79721 14.2188 4.87904C16.3479 3.96088 18.6083 3.50121 21 3.50004C23.4208 3.50004 25.6888 3.95971 27.804 4.87904C29.9192 5.79838 31.7707 7.05254 33.3585 8.64154C34.9463 10.2305 36.2005 12.0826 37.121 14.1978C38.0415 16.313 38.5012 18.5804 38.5 21C38.5 23.3917 38.0403 25.6521 37.121 27.7813C36.2017 29.9105 34.9475 31.7701 33.3585 33.3603C31.7695 34.9505 29.9174 36.2046 27.8022 37.1228C25.6871 38.041 23.4197 38.5 21 38.5ZM21 34.9125C21.7583 33.8625 22.4146 32.7688 22.9688 31.6313C23.5229 30.4938 23.975 29.2834 24.325 28H17.675C18.025 29.2834 18.4771 30.4938 19.0312 31.6313C19.5854 32.7688 20.2417 33.8625 21 34.9125ZM16.45 34.2125C15.925 33.25 15.4659 32.2508 15.0728 31.2148C14.6796 30.1788 14.3512 29.1072 14.0875 28H8.925C9.77083 29.4584 10.8284 30.7271 12.0977 31.8063C13.3671 32.8855 14.8178 33.6875 16.45 34.2125ZM25.55 34.2125C27.1833 33.6875 28.6347 32.8855 29.904 31.8063C31.1733 30.7271 32.2303 29.4584 33.075 28H27.9125C27.65 29.1084 27.3222 30.1805 26.929 31.2165C26.5358 32.2525 26.0762 33.2512 25.55 34.2125ZM7.4375 24.5H13.3875C13.3 23.9167 13.2347 23.341 13.1915 22.7728C13.1483 22.2046 13.1262 21.6137 13.125 21C13.1238 20.3864 13.146 19.796 13.1915 19.229C13.237 18.662 13.3023 18.0857 13.3875 17.5H7.4375C7.29167 18.0834 7.18258 18.6597 7.11025 19.229C7.03792 19.7984 7.00117 20.3887 7 21C6.99883 21.6114 7.03558 22.2023 7.11025 22.7728C7.18492 23.3433 7.294 23.919 7.4375 24.5ZM16.8875 24.5H25.1125C25.2 23.9167 25.2659 23.341 25.3103 22.7728C25.3546 22.2046 25.3762 21.6137 25.375 21C25.3738 20.3864 25.3517 19.796 25.3085 19.229C25.2653 18.662 25.2 18.0857 25.1125 17.5H16.8875C16.8 18.0834 16.7347 18.6597 16.6915 19.229C16.6483 19.7984 16.6262 20.3887 16.625 21C16.6238 21.6114 16.646 22.2023 16.6915 22.7728C16.737 23.3433 16.8023 23.919 16.8875 24.5ZM28.6125 24.5H34.5625C34.7083 23.9167 34.818 23.341 34.8915 22.7728C34.965 22.2046 35.0012 21.6137 35 21C34.9988 20.3864 34.9627 19.796 34.8915 19.229C34.8203 18.662 34.7107 18.0857 34.5625 17.5H28.6125C28.7 18.0834 28.7659 18.6597 28.8102 19.229C28.8546 19.7984 28.8762 20.3887 28.875 21C28.8738 21.6114 28.8517 22.2023 28.8085 22.7728C28.7653 23.3433 28.7 23.919 28.6125 24.5ZM27.9125 14H33.075C32.2292 12.5417 31.1722 11.273 29.904 10.1938C28.6358 9.11463 27.1845 8.31254 25.55 7.78754C26.075 8.75004 26.5347 9.74929 26.929 10.7853C27.3233 11.8213 27.6512 12.8929 27.9125 14ZM17.675 14H24.325C23.975 12.7167 23.5229 11.5063 22.9688 10.3688C22.4146 9.23129 21.7583 8.13754 21 7.08754C20.2417 8.13754 19.5854 9.23129 19.0312 10.3688C18.4771 11.5063 18.025 12.7167 17.675 14ZM8.925 14H14.0875C14.35 12.8917 14.6784 11.8195 15.0728 10.7835C15.4671 9.74754 15.9262 8.74888 16.45 7.78754C14.8167 8.31254 13.3653 9.11463 12.096 10.1938C10.8267 11.273 9.76967 12.5417 8.925 14Z" fill="#D2D7CB"/>
</svg>
